<?xml version="1.0" encoding="UTF-8" standalone="no"?>
<svg
   width="272.000000pt"
   height="291.000000pt"
   viewBox="0 0 272.000000 291.000000"
   version="1.1"
   id="svg549"
   sodipodi:docname="avatarone.svg"
   inkscape:version="1.1 (c68e22c387, 2021-05-23)"
   xmlns:inkscape="http://www.inkscape.org/namespaces/inkscape"
   xmlns:sodipodi="http://sodipodi.sourceforge.net/DTD/sodipodi-0.dtd"
   xmlns="http://www.w3.org/2000/svg"
   xmlns:svg="http://www.w3.org/2000/svg">
  <defs
     id="defs553">
    <clipPath
       clipPathUnits="userSpaceOnUse"
       id="clipPath729">
      <g
         inkscape:label="Clip"
         id="use731">
        <circle
           style="fill:#ff0000;fill-rule:evenodd;stroke-width:0.810519"
           id="circle746"
           cx="135.70673"
           cy="137.10577"
           r="131.15985" />
      </g>
    </clipPath>
  </defs>
  <sodipodi:namedview
     id="namedview551"
     pagecolor="#ffffff"
     bordercolor="#666666"
     borderopacity="1.0"
     inkscape:pageshadow="2"
     inkscape:pageopacity="0.0"
     inkscape:pagecheckerboard="0"
     inkscape:document-units="pt"
     showgrid="false"
     inkscape:zoom="3.3013689"
     inkscape:cx="228.84446"
     inkscape:cy="166.4461"
     inkscape:window-width="1920"
     inkscape:window-height="1017"
     inkscape:window-x="1672"
     inkscape:window-y="-8"
     inkscape:window-maximized="1"
     inkscape:current-layer="svg549" />
  <g
     transform="matrix(0.1,0,0,-0.1,-1.086222,290.99114)"
     fill="#a0a0a0"
     stroke="none"
     id="g507">
    <path
       id="path473"
       style="stroke-width:0.133333"
       transform="matrix(7.5,0,0,-7.5,1682.6923,2975.1058)"
       d="m -49.978516,17.142578 c -9.937316,0.05588 -16.91289,0.504297 -21.71289,1.404297 -18.8,3.6 -31.735024,8.000391 -49.068364,16.400391 -19.6,9.6 -32.13293,18.4 -45.59961,32 -18.4,18.266666 -33.86718,43.466664 -41.86718,68.000004 -6.53334,19.86666 -8.66576,36.40091 -7.73242,60.26757 0.53333,17.33334 1.33411,23.4655 4.80078,36.79883 2.8,10.93334 6.66666,21.06667 12,32 7.33333,14.93334 20.13177,34.13438 26.39843,39.73438 2.53334,2.26666 2.66758,2.13203 6.26758,-6.66797 l 3.59961,-9.06641 14.26758,-6.13281 c 7.86667,-3.46667 21.46564,-9.33255 30.26562,-13.19922 8.8,-3.73333 20.399614,-9.73503 25.599614,-13.06836 l 9.734375,-6.26562 v -9.73438 c 0,-9.06667 -0.400651,-10.39935 -5.333984,-18.66601 -2.933333,-4.8 -7.332943,-13.60066 -9.599609,-19.33399 -3.199996,-7.6 -5.333856,-11.0651 -7.867186,-12.39844 -4.53334,-2.26666 -11.86524,-16.53502 -11.86524,-23.06836 0,-2.66666 1.33164,-7.33229 2.93164,-10.26562 2.93334,-5.6 2.93503,-5.6 -0.93164,-10 -2,-2.53333 -4.93424,-7.19987 -6.26757,-10.5332 -3.73334,-8.53334 -4.53386,-24.00039 -1.86719,-34.40039 1.2,-4.666695 2.13476,-8.666931 2.13476,-8.933598 0,-0.133333 -4.00026,-0.798698 -8.93359,-1.332031 -5.06667,-0.533334 -12.40039,-2.134375 -16.40039,-3.734375 l -7.33399,-2.800782 4.66797,-0.93164 c 16.26667,-3.6 36.79974,-15.067709 53.06641,-29.734375 9.466667,-8.4 19.20026,-13.866667 32.933594,-18 28,-8.666667 51.999739,-2.666146 71.066406,17.867187 4.933333,5.2 11.733073,11.066406 15.066406,13.066406 12.933334,7.333334 20.533334,19.06578 22,33.732418 0.933334,9.86667 -2.80013,25.20131 -9.466797,38.66797 -2.533333,5.33334 -4.666015,10.26641 -4.666015,11.06641 0,0.93333 1.199349,3.86745 2.666015,6.80078 1.466667,2.93333 2.666016,7.19909 2.666016,9.73242 0,6.53334 -7.332813,20.5336 -12.132813,22.9336 -2.133333,1.2 -3.867187,2.66679 -3.867187,3.46679 0,2.53334 -8.266797,20.39974 -13.4667969,29.06641 -4.8,7.73333 -5.19921872,9.19896 -5.19921872,18.26562 v 9.86719 l 9.73242162,6.26758 c 5.2,3.33333 21.733724,11.99974 36.400391,19.06641 l 26.800781,13.0664 4.400391,9.4668 4.398437,9.4668 3.333985,-2.9336 c 7.2,-6.53333 19.599744,-25.06705 27.066404,-40.40039 5.2,-10.53333 9.33281,-21.46666 12.13281,-32 8.74254,-32.211 7.83196,-57.6964 0,-86.66601 -5.2,-19.33334 -16.5319,-43.46745 -27.86523,-58.800785 C 87.641667,73.480208 74.306771,60.148307 61.773438,50.681641 47.373438,39.881641 19.37526,26.814193 0.30859375,21.880859 -13.958073,18.147526 -18.225391,17.748177 -39.025391,17.214844 c -4,-0.06667 -7.640686,-0.09089 -10.953125,-0.07227 z"
       sodipodi:nodetypes="sccccccccccccccscccsccccsccccccccccssscscsccccccccccccccss" />
    <path
       id="path499"
       style="stroke-width:0.133333"
       transform="matrix(7.5,0,0,-7.5,1682.6923,2975.1058)"
       d="m -96.777344,177.89258 c 0.02056,0.0431 0.07159,0.14631 0.09961,0.20312 0.09391,0.0644 0.184308,0.13349 0.277343,0.19922 -0.01216,-0.0571 -0.03551,-0.11055 -0.05273,-0.16601 -0.106464,-0.0793 -0.205644,-0.15776 -0.324219,-0.23633 z" />
    <path
       d="m 1324,606 c -3,-8 -4,-27 -2,-43 2,-23 8,-29 34,-31 37,-4 57,16 52,55 -3,24 -8,28 -41,31 -26,2 -39,-1 -43,-12 z"
       id="path503" />
    <path
       d="m 1322,378 c -7,-7 -12,-21 -12,-33 0,-28 19,-45 50,-45 31,0 50,17 50,45 0,28 -19,45 -50,45 -14,0 -31,-5 -38,-12 z"
       id="path505" />
  </g>
  <g
     transform="matrix(0.1,0,0,-0.1,-247.52701,254.80269)"
     fill="#fee7bc"
     stroke="none"
     id="g515">
    <path
       d="m 4067.2701,1845.0269 c -75,-70 -127,-110 -183,-139 -71,-37 -191,-82 -217,-82 -7,0 -10,22 -8,61 4,71 -3,109 -21,109 -8,0 -28,-20 -46,-45 -18,-25 -68,-83 -112,-129 -43,-46 -79,-89 -79,-95 0,-6 7,-11 15,-11 8,0 15,5 15,10 807.6828,-203.1684 239.1263,140.8596 -87,-30 -14,-11 -31,-20 -38,-20 -23,0 -45,-48 -45,-98 0,-62 50,-166 89,-186 19,-10 35,-36 59,-93 17,-43 50,-109 72,-145 36,-61 40,-73 40,-135 v -68 l 150,-180 c 83,-99 157,-181 164,-183 14,-3 146,138 146,155 0,6 -35,12 -77,15 -61,3 -93,12 -144,36 -74,35 -152,107 -188,173 l -25,44 52,-47 c 29,-25 72,-56 95,-67 97,-47 208,-46 305,3 69,35 172,132 172,161 0,13 17,52 39,86 39,65 101,199 101,218 0,6 13,17 29,26 40,20 91,123 91,182 0,40 -22,101 -40,113 -4,3 -15,56 -24,119 -33,223 -89,341 -162,341 -28,0 -48,-14 -138,-99 z"
       id="path509"
       sodipodi:nodetypes="ccscsscssccsscccscccscccccccscscsccsc" />
  </g>
  <g
     transform="translate(0.000000,291.000000) scale(0.100000,-0.100000)"
     fill="#414141"
     stroke="none"
     id="g519">
    <path
       d="M1271 2739 c-126 -25 -237 -78 -323 -155 -35 -32 -101 -82 -147 -112 -82 -54 -220 -112 -267 -112 -84 0 32 -58 147 -73 l75 -10 -14 -51 c-17 -66 -10 -216 13 -271 9 -22 29 -56 43 -75 15 -19 26 -41 24 -47 -4 -20 32 -15 60 6 24 19 24 19 20 -67 -4 -83 -3 -88 22 -115 26 -28 26 -28 188 -26 163 1 163 1 180 27 11 17 18 46 18 80 l0 52 71 0 70 0 -2 -65 c-1 -41 2 -70 10 -78 17 -17 313 -23 352 -7 23 10 29 20 35 57 10 68 0 142 -23 164 -18 18 -34 20 -182 20 -162 0 -162 0 -182 -25 -18 -23 -27 -26 -90 -26 -42 0 -68 4 -64 10 3 5 -5 16 -19 25 -20 13 -54 16 -186 16 l-161 0 80 85 c44 46 94 104 112 129 28 39 34 43 42 29 5 -9 7 -48 5 -85 -5 -66 -4 -69 17 -69 36 0 145 39 228 82 56 29 108 69 183 139 71 68 112 99 128 99 38 0 82 -60 110 -148 20 -65 56 -256 56 -301 0 -6 7 -11 16 -11 8 0 12 4 9 10 -3 5 10 43 29 82 123 250 88 462 -93 565 -25 15 -76 59 -113 98 -73 78 -149 125 -243 150 -64 16 -163 18 -234 4z m-17 -895 c12 -5 16 -21 16 -74 0 -38 -3 -75 -6 -84 -5 -14 -29 -16 -159 -16 -130 0 -154 2 -159 16 -11 28 -6 134 7 149 9 11 44 14 149 15 75 0 143 -3 152 -6z m546 -82 c5 -77 4 -83 -15 -88 -11 -3 -82 -3 -159 -2 l-138 3 0 77 c0 42 3 82 7 88 4 7 55 10 153 8 l147 -3 5 -83z"
       id="path517" />
  </g>
  <g
     transform="translate(0.000000,291.000000) scale(0.100000,-0.100000)"
     fill="#d5d5d5"
     stroke="none"
     id="g531">
    <path
       d="M1673 1115 c-7 -20 2 -29 21 -22 9 4 13 13 10 22 -8 19 -23 19 -31 0z"
       id="path521" />
    <path
       d="M1046 1111 c-4 -5 2 -16 14 -23 11 -7 20 -18 20 -25 0 -6 14 -23 30 -36 17 -14 30 -30 30 -36 0 -5 11 -18 25 -29 14 -11 25 -25 25 -30 0 -6 11 -19 25 -30 14 -11 25 -25 25 -30 0 -6 11 -19 25 -30 14 -11 25 -25 25 -30 0 -6 12 -20 27 -31 14 -12 24 -23 22 -25 -5 -4 -96 -57 -171 -99 -28 -15 -52 -27 -53 -25 -2 2 -42 89 -90 193 -48 105 -90 194 -94 198 -4 4 -66 -18 -137 -49 -71 -31 -177 -77 -236 -103 -107 -46 -107 -46 -133 -109 -14 -34 -25 -67 -25 -73 0 -15 95 -104 175 -164 78 -58 256 -151 354 -184 140 -48 223 -63 382 -68 281 -10 450 33 742 190 77 42 243 178 252 208 3 9 -9 46 -26 83 l-32 68 -218 106 -219 107 -54 -120 c-30 -66 -69 -154 -87 -195 -18 -41 -36 -79 -39 -83 -4 -5 -31 5 -61 21 -30 17 -80 45 -112 62 -54 30 -57 33 -43 49 31 34 16 45 -17 13 l-33 -32 -112 135 c-65 78 -110 140 -106 147 4 6 3 8 -4 4 -6 -3 -28 15 -50 40 -23 28 -42 42 -46 35z m351 -517 c9 -24 -10 -49 -38 -49 -24 0 -36 23 -25 51 7 19 55 18 63 -2z m-6 -230 c17 -21 0 -49 -31 -49 -31 0 -48 28 -31 49 8 9 21 16 31 16 10 0 23 -7 31 -16z"
       id="path523" />
    <path
       d="M1617 1052 c-20 -22 -22 -42 -4 -42 16 0 47 32 47 48 0 18 -25 14 -43 -6z"
       id="path525" />
    <path
       d="M1537 962 c-20 -22 -22 -42 -4 -42 16 0 47 32 47 48 0 18 -25 14 -43 -6z"
       id="path527" />
    <path
       d="M1471 866 c-19 -20 -31 -39 -27 -43 9 -9 69 52 65 66 -3 7 -19 -4 -38 -23z"
       id="path529" />
  </g>
  <g
     transform="translate(0.000000,291.000000) scale(0.100000,-0.100000)"
     fill="#ededed"
     stroke="none"
     id="g537">
    <path
       d="M1660 1095 c-12 -13 -19 -28 -16 -33 3 -5 -4 -18 -17 -28 -22 -19 -22 -19 -2 6 11 14 0 7 -23 -15 -23 -22 -40 -45 -38 -51 3 -7 -5 -20 -17 -31 -22 -18 -22 -18 -2 7 12 16 6 12 -17 -9 -21 -19 -35 -38 -32 -43 3 -4 -22 -39 -55 -75 -34 -37 -61 -70 -61 -73 0 -3 24 -18 53 -33 28 -15 85 -45 125 -68 41 -22 75 -39 76 -37 9 11 188 420 185 422 -4 3 -103 65 -125 79 -6 3 -21 -4 -34 -18z"
       id="path533" />
    <path
       d="M986 1075 c-27 -18 -53 -38 -58 -43 -5 -5 29 -91 82 -207 50 -110 94 -203 96 -207 3 -4 31 7 63 25 148 82 181 102 181 110 0 14 -292 357 -304 356 -6 0 -33 -15 -60 -34z"
       id="path535" />
  </g>
  <g
     transform="translate(0.000000,291.000000) scale(0.100000,-0.100000)"
     fill="#dec494"
     stroke="none"
     id="g547">
    <path
       d="m 907,1798 c -604.66667,741.3333 -302.33333,370.6667 0,0 z"
       id="path539"
       sodipodi:nodetypes="cc" />
    <path
       d="m 1807,1798 c -1204.66667,741.3333 -602.3333,370.6667 0,0 z"
       id="path541"
       sodipodi:nodetypes="cc" />
    <path
       d="m 1487,1723 c -991.33333,791.3333 -495.66667,395.6667 0,0 z"
       id="path543"
       sodipodi:nodetypes="cc" />
    <path
       d="M1050 1206 c0 -31 66 -141 113 -187 27 -27 80 -64 116 -81 53 -25 82 -32 146 -36 l80 -3 98 112 c93 107 97 114 97 158 l0 47 -65 -64 c-85 -83 -170 -123 -257 -124 -105 0 -188 42 -280 140 -27 28 -48 45 -48 38z"
       id="path545" />
  </g>
</svg>
